;TYPE=PLATED
;Layer: PTH_Through_Via
;EasyEDA Pro v3.2.65, 2026-05-12 23:26:43
;Gerber Generator version 0.3
M48
METRIC,LZ,0000.00000
;Hole size 1 = 0.30500 METRIC
T01C0.30500
%
G05
G90
T01
X40.259Y-60.071
X46.609Y-68.961
X54.483Y-64.135
X48.26942Y-77.32339
X49.24981Y-77.32339
X52.324Y-68.834
X52.324Y-67.818
X51.562Y-68.326
X65.97015Y-61.849
X43.815Y-74.295
X44.704Y-74.295
X43.815Y-75.311
X44.704Y-75.311
X64.516Y-59.563
X63.00599Y-57.92599
X60.40161Y-67.10639
X51.943Y-65.83132
X81.28Y-48.57356
X81.28Y-49.657
X34.925Y-57.912
X88.519Y-50.673
X88.519Y-51.689
X88.519Y-52.705
X26.62187Y-56.134
X42.418Y-58.928
X27.305Y-60.325
X25.35767Y-63.246
X26.45833Y-63.246
X27.559Y-63.246
X24.257Y-63.246
X32.87838Y-60.833
X31.47834Y-60.833
X45.466Y-56.515
X50.07508Y-58.674
X37.846Y-62.357
X37.86411Y-63.754
X67.945Y-69.215
X66.294Y-69.469
X64.008Y-64.72673
X64.77Y-64.72673
X65.532Y-64.72673
X64.008Y-65.48873
X64.77Y-65.48873
X65.532Y-65.48873
X64.008Y-66.25073
X64.77Y-66.25073
X65.532Y-66.25073
X71.31036Y-61.976
X72.16753Y-61.976
X73.02471Y-61.976
X73.88189Y-61.976
X74.73906Y-61.976
X75.66435Y-61.97005
X75.66435Y-61.0407
X75.66435Y-60.11135
X75.66435Y-59.182
X75.66435Y-64.262
X74.79652Y-64.262
X73.22431Y-64.262
X72.43821Y-64.262
X71.6521Y-64.262
X70.866Y-64.262
X70.45318Y-61.976
X69.596Y-61.976
X75.66435Y-65.1383
X75.66435Y-66.0146
X75.66435Y-66.8909
X75.66435Y-67.7672
X75.66435Y-68.6435
X75.66435Y-69.5198
X75.66435Y-70.3961
X75.66435Y-71.2724
X75.66435Y-72.1487
X75.66435Y-73.025
X74.79652Y-65.1383
X74.79652Y-66.0146
X74.79652Y-66.8909
X74.79652Y-67.7672
X74.79652Y-68.6435
X74.79652Y-70.3961
X74.79652Y-71.2724
X74.79652Y-72.1487
X74.79652Y-73.025
X74.73906Y-61.03922
X74.73906Y-60.10987
X74.73906Y-59.18052
X74.79652Y-69.5198
X74.01041Y-64.262
X74.73906Y-57.32182
X75.66435Y-57.3233
X75.66435Y-58.25265
X74.73906Y-58.25117
X75.66435Y-56.39395
X74.73906Y-56.39247
X83.40718Y-54.737
X84.26436Y-54.737
X85.12153Y-54.737
X85.97871Y-54.737
X86.83589Y-54.737
X87.69306Y-54.737
X88.61835Y-54.73105
X51.61557Y-72.771
X52.705Y-72.771
X82.55Y-54.737
X81.69282Y-54.737
X80.83564Y-54.737
X79.97847Y-54.737
X79.12129Y-54.737
X78.26411Y-54.737
X77.40694Y-54.737
X76.48165Y-54.74295
X75.62447Y-54.74295
X74.7673Y-54.74295
X75.62447Y-55.50495
X74.7673Y-55.50495
X52.16028Y-72.009
X20.37503Y-29.464
X61.45314Y-73.40109
X67.056Y-68.961
X65.278Y-60.706
X47.244Y-69.89135
X46.19171Y-59.31495
X47.117Y-59.309
X45.26643Y-59.31495
X55.372Y-78.486
X61.468Y-77.978
X56.769Y-76.327
X37.7825Y-59.8805
X69.29379Y-64.262
X70.0799Y-64.262
X41.021Y-73.914
X35.814Y-61.087
X53.24972Y-72.009
X59.944Y-62.79949
X41.98487Y-73.152
X56.0Y-59.00072
X54.797Y-59.00072
X53.594Y-59.00072
X62.81612Y-59.009
X61.61312Y-59.009
X60.41012Y-59.009
X43.307Y-61.214
X41.402Y-65.913
M30